<svg xmlns="http://www.w3.org/2000/svg" width="24.453" height="29.884" viewBox="0 0 24.453 29.884"><defs><style>.a{fill:#fff;}</style></defs><path class="a" d="M36.037,20.933h.36c3.4,0,6.379-2.758,6.379-5.9V7.788l5.336-5.336a1.132,1.132,0,0,0-1.6-1.6L42.636,4.726A6.479,6.479,0,0,0,36.4,0h-.36c-3.4,0-6.379,2.758-6.379,5.9v9.13a5.222,5.222,0,0,0,.49,2.183l-1.153,1.154a6.739,6.739,0,0,1-.814-3.171.849.849,0,0,0-1.7,0,8.5,8.5,0,0,0,1.268,4.415l-3.429,3.429a1.132,1.132,0,1,0,1.6,1.6L29.167,21.4q.187.185.385.361a9.979,9.979,0,0,0,5.816,2.464v3.964H31.837a.849.849,0,0,0,0,1.7H41.42a.849.849,0,1,0,0-1.7H37.066V24.223a9.98,9.98,0,0,0,5.816-2.464A8.829,8.829,0,0,0,45.951,15.2a.849.849,0,0,0-1.7,0,7.131,7.131,0,0,1-2.5,5.289A8.206,8.206,0,0,1,36.4,22.552H36.03a8.206,8.206,0,0,1-5.353-2.065c-.106-.094-.209-.191-.309-.29l1.119-1.119A6.626,6.626,0,0,0,36.037,20.933Zm5.041-5.9c0,2.2-2.231,4.2-4.681,4.2h-.36a4.947,4.947,0,0,1-3.348-1.36l8.389-8.389Zm-9.722,0V5.9c0-2.2,2.231-4.2,4.681-4.2h.36c2.45,0,4.681,2,4.681,4.2v.383l-6.77,6.77L31.47,15.892A3.375,3.375,0,0,1,31.356,15.031Z" transform="translate(-23.99)"/></svg>