<svg xmlns="http://www.w3.org/2000/svg" width="20.425" height="20.425"><path d="M2.157 12.363a.7.7 0 0 1-.282-.584l.011-2.866a1.145 1.145 0 0 1 .07-.438 1.485 1.485 0 0 1 .21-.406l.06-.07q.048-.06.136-.147a7.051 7.051 0 0 1 .736-.595 7.143 7.143 0 0 1 1.47-.78 13.351 13.351 0 0 1 2.337-.68 15.907 15.907 0 0 1 3.31-.282 16.759 16.759 0 0 1 2.68.175 14.384 14.384 0 0 1 2.058.462 9.6 9.6 0 0 1 1.506.592 7.871 7.871 0 0 1 1.017.607 3.788 3.788 0 0 1 .58.49q.184.205.206.227a1.487 1.487 0 0 1 .206.404 1.146 1.146 0 0 1 .07.437l.004 2.883a.674.674 0 0 1-.196.495.571.571 0 0 1-.328.17 1.063 1.063 0 0 1-.384-.016l-3.349-1.035a.744.744 0 0 1-.432-.325.953.953 0 0 1-.165-.537v-1.06a.255.255 0 0 0-.033-.109.377.377 0 0 0-.065-.097 2.762 2.762 0 0 0-.713-.325 6.739 6.739 0 0 0-1.033-.232 9.934 9.934 0 0 0-1.627-.092 10.13 10.13 0 0 0-1.642.095 7.066 7.066 0 0 0-1.038.226 2.378 2.378 0 0 0-.547.233l-.162.108a.365.365 0 0 0-.054.087.255.255 0 0 0-.033.11l.01 1.243a.937.937 0 0 1-.28.627.8.8 0 0 1-.357.227l-.01.01-3.321.855a.769.769 0 0 1-.626-.087z" fill="#fff"/></svg>