<svg xmlns="http://www.w3.org/2000/svg" width="24.453" height="29.884"><path d="M12.047 20.933h.36c3.4 0 6.379-2.758 6.379-5.9V7.788l5.336-5.336a1.132 1.132 0 0 0-1.6-1.6l-3.876 3.874A6.479 6.479 0 0 0 12.41 0h-.36c-3.4 0-6.379 2.758-6.379 5.9v9.13a5.222 5.222 0 0 0 .49 2.183l-1.153 1.154a6.739 6.739 0 0 1-.814-3.171.85.85 0 0 0-1.7 0 8.5 8.5 0 0 0 1.268 4.415L.333 23.04a1.132 1.132 0 1 0 1.6 1.6l3.244-3.24q.187.185.385.361a9.979 9.979 0 0 0 5.816 2.464v3.964H7.847a.85.85 0 0 0 0 1.7h9.583a.85.85 0 1 0 0-1.7h-4.354v-3.966a9.98 9.98 0 0 0 5.816-2.464 8.829 8.829 0 0 0 3.069-6.559.85.85 0 0 0-1.7 0 7.131 7.131 0 0 1-2.5 5.289 8.206 8.206 0 0 1-5.351 2.063h-.37a8.206 8.206 0 0 1-5.353-2.065 7.724 7.724 0 0 1-.309-.29l1.119-1.119a6.626 6.626 0 0 0 4.55 1.855zm5.041-5.9c0 2.2-2.231 4.2-4.681 4.2h-.36a4.947 4.947 0 0 1-3.348-1.36l8.389-8.389zm-9.722 0V5.9c0-2.2 2.231-4.2 4.681-4.2h.36c2.45 0 4.681 2 4.681 4.2v.383l-6.77 6.77-2.838 2.839a3.375 3.375 0 0 1-.114-.861z" fill="#fff"/></svg>